<svg width="23" height="20" viewBox="0 0 23 20" fill="none" xmlns="http://www.w3.org/2000/svg">
<path d="M10.5274 2.73066C10.961 2.42207 11.5391 2.42207 11.9727 2.73066C12.8516 3.33613 13.9258 3.75019 15 3.75019C16.0508 3.75019 17.1641 3.32832 18.0235 2.73066C18.4883 2.39863 19.1211 2.42598 19.5547 2.79707C20.1172 3.26191 20.8242 3.61738 21.5313 3.78144C22.2032 3.93769 22.6211 4.60957 22.4649 5.28144C22.3086 5.95332 21.6367 6.37129 20.9649 6.21504C20.0078 5.99238 19.211 5.57051 18.6914 5.23848C17.5586 5.84785 16.2891 6.25019 15 6.25019C13.7539 6.25019 12.6328 5.86348 11.8594 5.51191C11.6328 5.40644 11.4258 5.30488 11.25 5.21113C11.0742 5.30488 10.8711 5.41035 10.6407 5.51191C9.86722 5.86348 8.74612 6.25019 7.50003 6.25019C6.21097 6.25019 4.94144 5.84785 3.80862 5.24238C3.28519 5.57051 2.49222 5.99629 1.53519 6.21894C0.863311 6.37519 0.191436 5.95723 0.0351856 5.28535C-0.121064 4.61348 0.296904 3.9416 0.968779 3.78535C1.6719 3.61738 2.38284 3.26191 2.94144 2.79707C3.37503 2.42598 4.00784 2.40254 4.47269 2.73066C5.33987 3.32832 6.44925 3.75019 7.50003 3.75019C8.57425 3.75019 9.64847 3.33613 10.5274 2.73066ZM11.9727 13.9807C12.8516 14.5861 13.9258 15.0002 15 15.0002C16.0508 15.0002 17.1641 14.5783 18.0235 13.9807C18.4883 13.6486 19.1211 13.676 19.5547 14.0471C20.1172 14.5119 20.8242 14.8674 21.5313 15.0314C22.2032 15.1877 22.6211 15.8596 22.4649 16.5314C22.3086 17.2033 21.6367 17.6213 20.9649 17.465C20.0078 17.2424 19.211 16.8205 18.6914 16.4885C17.5586 17.0979 16.2891 17.5002 15 17.5002C13.7539 17.5002 12.6328 17.1135 11.8594 16.7619C11.6328 16.6564 11.4258 16.5549 11.25 16.4611C11.0742 16.5549 10.8711 16.6604 10.6407 16.7619C9.86722 17.1135 8.74612 17.5002 7.50003 17.5002C6.21097 17.5002 4.94144 17.0979 3.80862 16.4924C3.28519 16.8205 2.49222 17.2463 1.53519 17.4689C0.863311 17.6252 0.191436 17.2072 0.0351856 16.5354C-0.121064 15.8635 0.296904 15.1916 0.968779 15.0354C1.67581 14.8713 2.38284 14.5158 2.94534 14.051C3.37894 13.6838 4.01175 13.6564 4.47659 13.9846C5.33987 14.5783 6.44925 15.0002 7.50003 15.0002C8.57425 15.0002 9.64847 14.5861 10.5274 13.9807C10.961 13.6721 11.5391 13.6721 11.9727 13.9807ZM11.9727 8.35566C12.8516 8.96113 13.9258 9.37519 15 9.37519C16.0508 9.37519 17.1641 8.95332 18.0235 8.35566C18.4883 8.02363 19.1211 8.05098 19.5547 8.42207C20.1172 8.88691 20.8242 9.24238 21.5313 9.40644C22.2032 9.56269 22.6211 10.2346 22.4649 10.9064C22.3086 11.5783 21.6367 11.9963 20.9649 11.84C20.0078 11.6174 19.211 11.1955 18.6914 10.8635C17.5586 11.4729 16.2891 11.8752 15 11.8752C13.7539 11.8752 12.6328 11.4885 11.8594 11.1369C11.6328 11.0314 11.4258 10.9299 11.25 10.8361C11.0742 10.9299 10.8711 11.0354 10.6407 11.1369C9.86722 11.4885 8.74612 11.8752 7.50003 11.8752C6.21097 11.8752 4.94144 11.4729 3.80862 10.8674C3.28519 11.1955 2.49222 11.6213 1.53519 11.8439C0.863311 12.0002 0.191436 11.5822 0.0351856 10.9104C-0.121064 10.2385 0.296904 9.5666 0.968779 9.41035C1.67581 9.24629 2.38284 8.89082 2.94534 8.42598C3.37894 8.05488 4.01175 8.03144 4.47659 8.35957C5.33987 8.95332 6.44925 9.37519 7.50003 9.37519C8.57425 9.37519 9.64847 8.96113 10.5274 8.35566C10.961 8.04707 11.5391 8.04707 11.9727 8.35566Z" fill="white"/>
</svg>
